<svg xmlns="http://www.w3.org/2000/svg" viewBox="0 0 140 140"><defs><style>.d1b59034-54ec-437a-b554-cea087abd2b0{fill:#0c120c;}</style></defs><title>dashbox-onyx</title><g id="db86cf86-13ed-4adb-86a8-d8855a6bf051" data-name="Layer 2"><g id="60ee6d47-7a5b-42b2-a3df-df3cd0052223" data-name="LOGO"><g id="95fc6e3b-f1ff-420d-806a-1cc844bb997d" data-name="dashbox"><rect class="d1b59034-54ec-437a-b554-cea087abd2b0" x="52.29846" width="35.40191" height="6"/><polygon class="d1b59034-54ec-437a-b554-cea087abd2b0" points="6 16.897 0 16.897 0 0 16.897 0 16.897 6 6 6 6 16.897"/><polygon class="d1b59034-54ec-437a-b554-cea087abd2b0" points="123.103 6 123.103 0 140 0 140 16.897 134 16.897 134 6 123.103 6"/><rect class="d1b59034-54ec-437a-b554-cea087abd2b0" y="52.29846" width="6" height="35.40191"/><polygon class="d1b59034-54ec-437a-b554-cea087abd2b0" points="16.897 140 0 140 0 123.103 6 123.103 6 134 16.897 134 16.897 140"/><rect class="d1b59034-54ec-437a-b554-cea087abd2b0" x="52.29846" y="134" width="35.40191" height="6"/><polygon class="d1b59034-54ec-437a-b554-cea087abd2b0" points="140 140 123.103 140 123.103 134 134 134 134 123.103 140 123.103 140 140"/><rect class="d1b59034-54ec-437a-b554-cea087abd2b0" x="134" y="52.29846" width="6" height="35.40191"/></g></g></g></svg>