<svg xmlns="http://www.w3.org/2000/svg" viewBox="0 0 147.99594 149.24071"><defs><style>.ec414c8f-248f-49d0-a44b-a9574244a46d{fill:#0c120c;}</style></defs><title>dashbox-black</title><g id="e36bdd9f-bea2-4ac2-bd3c-81c8245085d2" data-name="Layer 2"><g id="56752054-3706-4e34-a356-2c90108173f9" data-name="LOGO"><g id="a19718e6-1ad2-4a45-84f9-06c9211ca351" data-name="square 2"><rect class="ec414c8f-248f-49d0-a44b-a9574244a46d" x="52.29846" y="9.24071" width="35.40191" height="6"/><polygon class="ec414c8f-248f-49d0-a44b-a9574244a46d" points="6 26.137 0 26.137 0 9.241 16.897 9.241 16.897 15.241 6 15.241 6 26.137"/><rect class="ec414c8f-248f-49d0-a44b-a9574244a46d" y="61.53916" width="6" height="35.40191"/><polygon class="ec414c8f-248f-49d0-a44b-a9574244a46d" points="16.897 149.241 0 149.241 0 132.344 6 132.344 6 143.241 16.897 143.241 16.897 149.241"/><rect class="ec414c8f-248f-49d0-a44b-a9574244a46d" x="52.29846" y="143.24071" width="35.40191" height="6"/><polygon class="ec414c8f-248f-49d0-a44b-a9574244a46d" points="140 149.241 123.103 149.241 123.103 143.241 134 143.241 134 132.344 140 132.344 140 149.241"/><rect class="ec414c8f-248f-49d0-a44b-a9574244a46d" x="134" y="61.53916" width="6" height="35.40191"/><path class="ec414c8f-248f-49d0-a44b-a9574244a46d" d="M147.61911,30.90637v6.03054h-24.499v-6.7842q0-5.27688,3.01464-8.10374,3.0159-2.82623,9.04644-4.209,4.14452-1.00279,5.08784-2.763a7.382,7.382,0,0,0,.9427-3.51792,5.91336,5.91336,0,0,0-1.38213-3.83216,5.34939,5.34939,0,0,0-4.398-1.69636,6.07294,6.07294,0,0,0-4.58457,1.759,6.94946,6.94946,0,0,0-1.69636,5.02524V15.077h-6.7842V12.81474a12.91855,12.91855,0,0,1,3.45407-9.04518Q129.27585.00063,135.68322,0a14.12381,14.12381,0,0,1,5.33948.9427,10.91555,10.91555,0,0,1,3.83216,2.51262,11.09354,11.09354,0,0,1,2.32358,3.64312,11.3968,11.3968,0,0,1,.8175,4.209,13.33358,13.33358,0,0,1-2.26223,7.7895q-2.261,3.26754-8.29153,4.52322-4.522,1.00655-6.03054,2.51262a5.432,5.432,0,0,0-1.50732,4.01995v.75366Z"/></g></g></g></svg>