<svg xmlns="http://www.w3.org/2000/svg" viewBox="0 0 1271.5752 825.11816"><title>hr-2</title><g id="830f539d-1899-4a60-bd4d-d2e0c7ce9999" data-name="Layer 2"><g id="2c746f17-8dc2-475b-a884-898f1fc1c272" data-name="p0"><path d="M182.44629,83.08691,168.7666,42.91211H147.8877l7.77539-21.31152H181.583l36.71875,100.79785H195.83789l-7.4873-22.03125h-19.584V83.08691Z" transform="translate(-25.99414 -20.16016)"/><path d="M292.60449,79.77539v42.623H273.74121v-7.91992c-2.30371,2.87988-8.63965,9.36035-22.89551,9.36035-14.832,0-25.4873-7.2002-25.4873-19.584,0-15.26367,11.51953-21.45605,32.97558-24.04785,1.15137-.14355,2.15918-.28808,3.168-.43164Zm-18.86328,9.21582c-3.02441,1.72754-7.63183,2.87988-12.96,3.74414-11.376,2.15918-14.83105,5.32715-14.83105,10.0791,0,4.89649,4.17578,7.2002,9.93554,7.2002,7.77539,0,17.85547-4.752,17.85547-17.85547Z" transform="translate(-25.99414 -20.16016)"/><path d="M423.21,95.75879c0,15.26367-9.21582,26.63965-33.9834,26.63965H369.93164V104.11035h16.99121c9.792,0,14.54395-4.60742,14.54395-11.95117,0-7.63184-5.47168-12.38379-15.55176-12.38379h-15.9834V62.92773h21.59961c10.51172,0,14.83105-4.89648,14.83105-12.0957,0-6.624-4.03125-11.376-14.39941-11.376H369.93164V21.60059h22.60742c23.61524,0,34.415,10.51171,34.415,27.07129,0,10.7998-5.90332,20.01562-21.59961,23.75976C417.73828,76.60742,423.21,84.81543,423.21,95.75879Z" transform="translate(-25.99414 -20.16016)"/><path d="M512.92188,87.11914c0,21.59961-12.24024,36.71973-31.39161,36.71973a29.01162,29.01162,0,0,1-5.18359-.43262V108.8623c10.08008,0,15.83984-7.63183,15.83984-21.31152s-5.61621-22.31933-15.98437-22.31933c-9.50293,0-15.55078,7.20019-15.83887,20.44726H440.34766V20.16016h20.01562V58.752c3.45508-5.75976,10.94336-9.792,20.30371-9.792C498.52246,48.96,512.92188,63.50391,512.92188,87.11914Z" transform="translate(-25.99414 -20.16016)"/><path d="M635.1748,57.74414c-2.30371-13.82422-11.51953-18.71973-24.76757-18.71973V20.16016c24.47949,0,43.63183,12.0957,46.7998,37.584ZM658.3584,83.375c-2.5918,28.36719-20.87988,40.46387-47.95117,40.46387v-18c15.83984,0,23.47168-6.91211,25.91992-22.46387Z" transform="translate(-25.99414 -20.16016)"/><path d="M669.5918,86.543c0-21.59961,13.67968-37.15137,36-37.583V65.08789c-10.36817.5752-15.98438,9.791-15.98438,21.167,0,13.1045,7.34375,21.31153,17.42383,21.31153,8.92773,0,13.24805-5.1836,14.832-12.959h19.72754c-1.72852,17.13477-13.53613,29.23145-34.70312,29.23145C683.416,123.83887,669.5918,107.85449,669.5918,86.543Z" transform="translate(-25.99414 -20.16016)"/><path d="M838.502,22.03223c30.38282,2.87988,43.77442,22.46386,43.77442,49.96679,0,29.95215-15.11914,50.39942-52.27051,50.39942H794.582V71.999h22.03223v32.11133h11.51953c25.77539,0,31.3916-14.6875,31.3916-32.11133,0-14.25488-3.60059-27.50293-21.02344-31.10254Z" transform="translate(-25.99414 -20.16016)"/><path d="M946.499,20.16016h20.16016V122.39844H946.499v-8.78418c-2.01562,3.60058-8.49511,10.22461-21.02343,10.22461-19.2959,0-31.39161-15.12012-31.39161-36.71973a39.99989,39.99989,0,0,1,.57618-7.34375H915.54a41.98438,41.98438,0,0,0-.71973,7.77539c0,13.67969,5.75977,21.31152,15.83887,21.31152,12.81641,0,15.83984-12.81542,15.83984-23.18359Z" transform="translate(-25.99414 -20.16016)"/><path d="M1092.5127,21.60059V40.46387h-45.93555V21.60059Zm-4.46387,58.751h-41.47168V62.92773h41.47168Zm-41.47168,23.1836h45.93555v18.86328h-45.93555Z" transform="translate(-25.99414 -20.16016)"/><path d="M1175.74512,98.207c-2.44824,14.39942-12.81641,25.63184-34.416,25.63184-20.01562,0-31.67871-10.79981-35.71094-25.63184h20.44727c2.73633,7.05567,8.35156,10.36719,15.69629,10.36719,8.207,0,12.959-3.74317,14.39941-10.36719Zm-.43262-7.05566h-35.42285V78.91113h14.6875c-1.00781-10.36718-6.19238-15.11914-14.25586-15.11914l-.43164-14.832c21.88769,0,35.42285,13.24805,35.42285,39.02344Z" transform="translate(-25.99414 -20.16016)"/><path d="M92.80957,213.69629H47.88184V237.8877H89.92969v18.57519H25.99414v-62.0625H92.80957Z" transform="translate(-25.99414 -20.16016)"/><path d="M146.80859,210.0957c-8.06347,0-11.95214,4.89649-11.95214,10.94434v2.15918H154.585v14.40039H100.874V223.19922h13.3916v-3.168c0-15.11914,12.52735-25.63086,27.21485-25.63086h16.99219V210.0957Z" transform="translate(-25.99414 -20.16016)"/><path d="M201.96094,256.751a62.20627,62.20627,0,0,1-1.00782-11.80762c0-32.25586,19.2959-51.9834,49.67872-51.9834,25.91992,0,42.76757,13.96777,44.49511,37.43945H273.96c-2.0166-12.38379-10.7998-18.86328-22.752-18.86328-17.13574,0-28.36719,13.10352-28.36719,33.55078a43.16287,43.16287,0,0,0,1.43945,11.66407Zm43.91894-15.26368h49.96778v53.71094h-13.1045L280.584,279.93457V256.751h-34.7041Z" transform="translate(-25.99414 -20.16016)"/><path d="M343.65625,221.75977a43.46487,43.46487,0,0,1,4.46387.28808V237.8877c-10.36817,0-16.416,8.92773-16.416,22.31933,0,13.82324,6.33594,21.45508,15.9834,21.45508,9.64844,0,16.56055-7.48731,16.56055-22.03125a35.92266,35.92266,0,0,0-.57617-7.05566h20.30371v41.61523c0,23.03906-13.24805,34.127-36.14356,34.127-24.19141,0-33.26367-12.67187-34.27148-27.21484h18.86328c.7207,6.62305,4.89648,11.95117,15.98437,11.95117,11.23145,0,15.83985-5.61523,15.83985-17.56738v-9.21582c-2.0166,3.74414-8.92774,10.36816-21.45606,10.36816-19.2959,0-31.3916-15.12012-31.3916-36.71972C311.40039,236.30371,325.80078,221.75977,343.65625,221.75977Z" transform="translate(-25.99414 -20.16016)"/><path d="M505.36523,194.40039h22.60743v58.89453H462.31055v41.90332h-22.6084V234.71973h65.66308Z" transform="translate(-25.99414 -20.16016)"/><path d="M567.57129,240.91113c2.44824-6.76758,9.07226-19.15136,25.63183-19.15136,14.97559,0,24.19141,8.78418,24.19141,29.08691v44.35156H596.65918V255.74316c0-11.66406-2.88086-17.13574-11.23242-17.13574-7.48731,0-14.11133,5.1836-16.70313,19.8711H547.124V192.96h20.44727Z" transform="translate(-25.99414 -20.16016)"/><path d="M695.00879,258.47852H672.97656V194.40039h22.03223Z" transform="translate(-25.99414 -20.16016)"/><path d="M713.72559,213.12012V195.26465h21.45605v17.85547Z" transform="translate(-25.99414 -20.16016)"/><path d="M844.76367,194.40039h22.03125v62.207c0,18.86328-7.91992,31.53516-22.03125,37.00684Z" transform="translate(-25.99414 -20.16016)"/><path d="M884.07715,267.2627H904.8125v31.82324c0,18.43164-11.51953,27.792-29.51953,27.792H859.59766V310.60547h9.93554c9.64746,0,14.54395-4.03125,14.54395-13.24707Z" transform="translate(-25.99414 -20.16016)"/><path d="M1004.02734,238.46289l41.61524,56.73535h-25.34375l-29.80664-41.18359-8.06446,9.07226V234.5752l33.26368-40.17481h27.07129Z" transform="translate(-25.99414 -20.16016)"/><path d="M1103.0957,295.19824l-20.15918-27.35937-7.20019,7.77539v19.584h-19.583V251.85547h19.583l25.05566-28.65625h23.47168l-28.94336,31.24805,30.52735,40.751Z" transform="translate(-25.99414 -20.16016)"/><path d="M1191.6543,251.13477v24.624h49.24707v19.43945h-71.2793V251.13477Z" transform="translate(-25.99414 -20.16016)"/><path d="M1253,192.96h21.02344v65.51856H1253Z" transform="translate(-25.99414 -20.16016)"/><path d="M87.40918,394.84766v73.15039H66.81738V367.2002H96.625l9.21582,27.64746ZM149.9043,367.2002h29.66308V467.99805H159.12012V394.84766H140.68848Z" transform="translate(-25.99414 -20.16016)"/><path d="M198.71973,431.27832V395.999H219.167V412.127c2.01563-5.61523,8.06348-17.56738,23.32715-17.56738,12.24024,0,19.44043,5.90332,21.8877,18.43164,4.32031-10.51172,12.0957-18.43164,24.47949-18.43164,15.55176,0,22.75195,9.21582,22.75195,28.22363v8.49512H291.59766v-2.87988c0-11.375-2.5918-16.84766-9.93555-16.84766s-13.53613,5.32813-15.55176,19.72754H245.23047v-2.87988c0-11.375-2.44824-16.84766-9.93555-16.84766-7.20019,0-13.3916,5.18457-15.4082,19.72754Z" transform="translate(-25.99414 -20.16016)"/><path d="M434.58691,440.92676h21.168v27.07129H429.835l-41.4707-74.01465v74.01465h-21.168V367.2002h26.06348Z" transform="translate(-25.99414 -20.16016)"/><path d="M475.05078,431.27832V395.999h20.44727v17.71192c2.44824-6.76758,9.07226-19.15137,25.63183-19.15137,14.97559,0,24.19141,8.78418,24.19141,29.08691v44.35157H524.58594V428.543c0-11.66406-2.87989-17.13574-11.23145-17.13574-7.48828,0-14.1123,5.04-16.7041,19.87109Z" transform="translate(-25.99414 -20.16016)"/><path d="M698.53418,417.59863c0,32.54395-19.43945,51.83985-50.543,51.83985V450.8623c16.84766,0,27.21582-13.10351,27.21582-33.26367,0-20.15918-10.36816-33.26269-27.21582-33.26269s-27.35937,13.10351-27.35937,33.26269h-23.1836c0-32.543,19.43946-51.83886,50.543-51.83886S698.53418,385.05566,698.53418,417.59863Z" transform="translate(-25.99414 -20.16016)"/><path d="M747.20605,469.43848c-22.03125,0-36.43066-13.82422-36.43066-37.2959,0-23.32715,14.39941-37.15137,36.43066-37.15137,21.8877,0,36.28809,13.53613,36.5752,36.43164H763.334c-.28808-12.38379-5.75976-20.73535-16.12793-20.73535-10.51171,0-15.98339,8.7832-15.98339,21.45508,0,12.96,5.47168,21.88769,15.98339,21.88769Z" transform="translate(-25.99414 -20.16016)"/><path d="M872.33984,367.2002c28.79981,0,39.74317,16.27148,39.74317,35.13476,0,19.2959-10.22363,35.2793-39.74317,35.2793H836.48438V367.2002Zm1.15235,52.55859c12.0957,0,16.84765-8.35156,16.84765-17.2793s-4.89648-17.28027-16.84765-17.28027H858.084v34.55957Z" transform="translate(-25.99414 -20.16016)"/><path d="M996.75293,432.71875c0,21.59961-12.23926,36.71973-31.39063,36.71973-12.52832,0-19.00781-6.624-21.168-10.22461v40.46386H923.74707V425.51855h21.02344a32.91618,32.91618,0,0,0-.57617,6.76856c0,14.6875,6.624,22.1748,15.98339,22.1748,10.08008,0,15.83985-7.63183,15.83985-21.31152s-5.61621-22.31934-15.83985-22.31934V394.84766a37.91065,37.91065,0,0,1,4.17579-.28809C982.35352,394.55957,996.75293,409.10352,996.75293,432.71875Z" transform="translate(-25.99414 -20.16016)"/><path d="M1155.294,467.99805h-21.88672l-6.624-6.624c-8.06445,5.32813-18.28808,8.06446-30.0957,8.06446a58.60209,58.60209,0,0,1-7.2002-.43262V449.99805a29.01322,29.01322,0,0,0,7.2002.86425,26.05319,26.05319,0,0,0,15.12012-4.46386L1089.4873,424.0791l11.80762-11.376,20.01563,20.5918a44.282,44.282,0,0,0,2.59277-15.69629c0-20.15918-10.36816-33.26269-27.21582-33.26269a29.05944,29.05944,0,0,0-7.2002.86328V366.19238a58.60408,58.60408,0,0,1,7.2002-.43261c31.10352,0,50.543,19.29589,50.543,51.83886,0,13.248-3.168,24.33594-9.21582,32.832Z" transform="translate(-25.99414 -20.16016)"/><path d="M1181.64746,425.51855a41.60337,41.60337,0,0,0-.71973,7.63184c0,13.67969,5.75977,21.31152,15.83887,21.31152,9.36035,0,15.98438-7.4873,15.98438-22.1748V395.999h20.44726V499.67773H1212.751V459.21387c-2.16016,3.60058-8.63965,10.22461-21.168,10.22461-19.15137,0-31.3916-15.12012-31.3916-36.71973a58.60408,58.60408,0,0,1,.43261-7.2002Z" transform="translate(-25.99414 -20.16016)"/><path d="M84.81445,618.335,91.582,640.79883H68.11035l-6.624-21.45606c-4.03125-12.81543-10.22363-13.53515-24.91113-13.53515H32.6875V588.0957H48.959c10.94336,0,15.55176-7.05566,15.55176-14.6875,0-7.91992-4.752-14.54394-15.55176-14.54394H32.6875V540.001H48.09473c29.376,0,38.44726,16.12793,38.44726,31.10351,0,13.96778-7.05566,23.1836-24.335,26.207C74.73438,599.75977,80.92676,605.376,84.81445,618.335Z" transform="translate(-25.99414 -20.16016)"/><path d="M104.25293,568.7998h20.87891v17.28028c3.168-8.63965,9.93652-17.28028,23.18359-17.28028h9.64844v17.42383h-7.48828c-11.66407,0-21.168,3.02442-24.335,17.85547H104.25293Z" transform="translate(-25.99414 -20.16016)"/><path d="M277.33691,614.30371c0,18.71973-15.4082,27.93555-35.999,27.93555-23.75977,0-37.87207-13.68067-39.168-33.55176h21.59961c.86426,10.22363,7.91992,15.55176,18.57617,15.55176,7.48731,0,12.67188-3.02442,12.67188-9.792,0-6.624-4.752-9.21582-14.54395-11.95215V584.35156a6.3538,6.3538,0,0,1,1.43946.28809C263.65723,589.24805,277.33691,595.87207,277.33691,614.30371Zm-36.86328-75.74316c21.45508.43261,39.74317,10.36816,41.61524,38.01562H260.63281c-1.00781-12.0957-7.63183-18.28808-20.15918-19.15137Z" transform="translate(-25.99414 -20.16016)"/><path d="M290.585,589.24805c0-18,18.57617-21.8877,32.97559-21.8877V582.624c-4.752,0-12.96.43164-12.96,7.05567,0,5.61621,5.47168,6.91211,15.26367,8.78418,13.82422,2.30371,27.64746,7.4873,27.64746,22.46289,0,14.68847-13.10352,21.3125-29.66309,21.3125-17.71191,0-29.23144-8.78418-30.81543-24.91211h19.15137c.86426,6.91211,4.89648,10.65625,12.81543,10.65625,5.04,0,8.64062-2.0166,8.64062-6.76856,0-6.1914-6.48046-7.19922-15.83984-8.92773C301.96094,609.55176,290.585,602.7832,290.585,589.24805Z" transform="translate(-25.99414 -20.16016)"/><path d="M456.18164,540.001V640.79883H434.14941V558.86426H402.4707V540.001Z" transform="translate(-25.99414 -20.16016)"/><path d="M545.31738,624.6709v16.12793H530.3418c-14.6875,0-26.207-9.21582-26.207-26.63965v-30.959H490.74316V568.7998h52.84668v14.4004H524.72559V611.999c0,7.91993,3.74414,12.67188,11.80859,12.67188Z" transform="translate(-25.99414 -20.16016)"/><path d="M591.68555,598.17578h22.03222c.43164,17.42383,8.06348,25.19922,21.8877,25.19922,13.96777,0,21.59961-7.77539,22.03125-25.19922H679.668c-.14356,28.51172-16.27149,44.06348-44.0625,44.06348C607.958,642.23926,591.83008,626.6875,591.68555,598.17578Z" transform="translate(-25.99414 -20.16016)"/><path d="M767.36523,640.79883H746.918V623.08691c-2.44824,6.76856-9.07227,19.15235-25.63184,19.15235-14.97558,0-24.1914-8.78418-24.1914-29.08789V568.7998h20.73535v39.45606c0,11.66309,2.87988,17.13574,11.23144,17.13574,8.64063,0,16.12793-6.76855,17.56836-27.21582h20.73535Z" transform="translate(-25.99414 -20.16016)"/><path d="M866.292,617.61523h22.03223L879.54,640.79883H853.04492L814.74121,540.001h24.624Z" transform="translate(-25.99414 -20.16016)"/><path d="M980.05273,620.63965l-8.208,20.15918H948.37305l-29.51856-71.999h22.46289l18.71973,51.83985Z" transform="translate(-25.99414 -20.16016)"/><path d="M1085.1709,596.87988h18.43164l-12.24024,43.91895h-23.75878l-11.66407-43.91895h20.73535l3.8877,16.84766Zm63.50293,0h20.73535l-11.80762,43.91895h-23.61621l-12.0957-43.91895h18.28808l4.60743,16.84766Z" transform="translate(-25.99414 -20.16016)"/><path d="M1215.05859,596.73535h-18.86328l-7.63183-27.93555h19.583Zm25.63184,0h-15.4082l7.77636-27.93555h20.01563l7.77539,27.93555h-15.26367l-2.44824-8.35156Zm49.24707,0h-18.86426l6.91211-27.93555h19.584Z" transform="translate(-25.99414 -20.16016)"/><path d="M410.46777,722.73633v38.73535l35.2793,52.12695H419.54l-22.17578-32.83105L384.26074,800.207V761.47168l-32.83105-48.6709h26.207l19.72754,29.23145Z" transform="translate(-25.99414 -20.16016)"/><path d="M498.45117,776.5918l-23.03906-.14453-25.48828-34.84766h23.75976l13.10352,19.00781,13.10449-19.00781h23.75879Z" transform="translate(-25.99414 -20.16016)"/><path d="M639.71289,712.80078H664.624L611.48926,813.59863H586.72168L607.60156,773.999,593.3457,753.55176h25.91895Z" transform="translate(-25.99414 -20.16016)"/><path d="M707.53711,789.9834l18.14355-48.38379h21.45508l-34.70312,84.23926c-5.75977,13.96679-14.832,19.43945-30.67188,19.43945H667.9375V829.294h10.51172c9.21582,0,13.53613-3.168,16.55957-10.51172l2.73633-6.76758L686.80078,789.9834Z" transform="translate(-25.99414 -20.16016)"/><path d="M844.04492,763.19922l-22.751,31.53613h51.40722v18.86328H790.04688V800.49512l27.07128-37.2959Z" transform="translate(-25.99414 -20.16016)"/><path d="M910.7168,797.03906h34.84668v16.55957H884.07715v-11.376l34.70312-44.207v-16.416h25.77539V753.9834Z" transform="translate(-25.99414 -20.16016)"/></g></g></svg>