<?xml version="1.0" encoding="UTF-8"?>
<svg width="31px" height="31px" viewBox="0 0 31 31" version="1.1" xmlns="http://www.w3.org/2000/svg" xmlns:xlink="http://www.w3.org/1999/xlink">
    <!-- Generator: Sketch 51.1 (57501) - http://www.bohemiancoding.com/sketch -->
    <title>plus</title>
    <desc>Created with Sketch.</desc>
    <defs></defs>
    <g id="Page-1" stroke="none" stroke-width="1" fill="none" fill-rule="evenodd">
        <g id="plus" fill-rule="nonzero">
            <polygon id="Shape" fill="#000000" points="14 29 14 17 2 17 2 14 14 14 14 2 17 2 17 14 29 14 29 17 17 17 17 29"></polygon>
            <path d="M17,2 L17,14 L29,14 L29,17 L17,17 L17,29 L14,29 L14,17 L2,17 L2,14 L14,14 L14,2 L17,2 Z M19,0 L12,0 L12,12 L0,12 L0,19 L12,19 L12,31 L19,31 L19,19 L31,19 L31,12 L19,12 L19,0 Z" id="Shape" fill="#FFFFFF"></path>
        </g>
    </g>
</svg>