<svg xmlns="http://www.w3.org/2000/svg" viewBox="0 0 200 200"><defs><style>.b393f427-f200-455d-8b69-cc219df99801{fill:#6aa1f4;}.f663e48a-b3cf-45e3-b3b5-655f5230b75f{fill:#f2f3f7;}</style></defs><title>square-blue-bg</title><g id="9a9b9d13-3c2a-4f9b-9613-e53987c93115" data-name="MARK"><rect class="b393f427-f200-455d-8b69-cc219df99801" width="200" height="200"/><g id="6e79585d-7c35-42e4-8380-f601c21ddc97" data-name="square 2"><rect class="f663e48a-b3cf-45e3-b3b5-655f5230b75f" x="92.69758" y="71.40166" width="14.68754" height="2.48928"/><polygon class="f663e48a-b3cf-45e3-b3b5-655f5230b75f" points="73.489 78.412 71 78.412 71 71.402 78.01 71.402 78.01 73.891 73.489 73.891 73.489 78.412"/><rect class="f663e48a-b3cf-45e3-b3b5-655f5230b75f" x="71" y="93.09925" width="2.48928" height="14.68754"/><polygon class="f663e48a-b3cf-45e3-b3b5-655f5230b75f" points="78.01 129.485 71 129.485 71 122.475 73.489 122.475 73.489 126.996 78.01 126.996 78.01 129.485"/><rect class="f663e48a-b3cf-45e3-b3b5-655f5230b75f" x="92.69758" y="126.99558" width="14.68754" height="2.48928"/><polygon class="f663e48a-b3cf-45e3-b3b5-655f5230b75f" points="129.083 129.485 122.073 129.485 122.073 126.996 126.594 126.996 126.594 122.475 129.083 122.475 129.083 129.485"/><rect class="f663e48a-b3cf-45e3-b3b5-655f5230b75f" x="126.59392" y="93.09925" width="2.48928" height="14.68754"/><path class="f663e48a-b3cf-45e3-b3b5-655f5230b75f" d="M132.24422,80.39031v2.50195H122.08008V80.07763a4.38648,4.38648,0,0,1,1.25071-3.36208,8.05093,8.05093,0,0,1,3.75319-1.74622,3.15246,3.15246,0,0,0,2.11084-1.14632,3.0626,3.0626,0,0,0,.39111-1.45951,2.45329,2.45329,0,0,0-.57342-1.58988,2.21934,2.21934,0,0,0-1.82465-.70379,2.51953,2.51953,0,0,0-1.90205.72976,2.88319,2.88319,0,0,0-.70378,2.08487V73.823H121.7674v-.93855a5.35968,5.35968,0,0,1,1.433-3.75267,5.27211,5.27211,0,0,1,4.09184-1.56391,5.8597,5.8597,0,0,1,2.21524.39111,4.52836,4.52836,0,0,1,1.58988,1.04243,4.60238,4.60238,0,0,1,.964,1.51146,4.72816,4.72816,0,0,1,.33917,1.74622,5.53182,5.53182,0,0,1-.93856,3.23171,5.29145,5.29145,0,0,1-3.44,1.87659,5.33494,5.33494,0,0,0-2.502,1.04244,2.25366,2.25366,0,0,0-.62535,1.66779v.31268Z"/></g></g></svg>