<svg id="197a503e-378b-408e-aadd-7b7d4cc6c957" data-name="STACK" xmlns="http://www.w3.org/2000/svg" viewBox="0 0 266 200"><defs><style>.c5dc244c-cf82-4d35-91f0-2308bcc51f52{fill:#6aa1f4;}.bab45f9a-33b2-4fb2-87f8-866685801f4e{fill:#f2f3f7;}</style></defs><title>stack-blue-bg</title><rect class="c5dc244c-cf82-4d35-91f0-2308bcc51f52" width="266" height="200"/><g id="5203b6d8-37b7-4748-a365-f8dc5e46883e" data-name="square 2"><polygon class="bab45f9a-33b2-4fb2-87f8-866685801f4e" points="72.535 51.125 70.049 51.125 70.049 44.124 77.049 44.124 77.049 46.61 72.535 46.61 72.535 51.125"/><rect class="bab45f9a-33b2-4fb2-87f8-866685801f4e" x="70.04878" y="65.79237" width="2.48594" height="14.66782"/><polygon class="bab45f9a-33b2-4fb2-87f8-866685801f4e" points="77.049 102.129 70.049 102.129 70.049 95.129 72.535 95.129 72.535 99.643 77.049 99.643 77.049 102.129"/><polygon class="bab45f9a-33b2-4fb2-87f8-866685801f4e" points="195.064 102.129 188.063 102.129 188.063 99.643 192.578 99.643 192.578 95.129 195.064 95.129 195.064 102.129"/><rect class="bab45f9a-33b2-4fb2-87f8-866685801f4e" x="192.57774" y="65.79237" width="2.48594" height="14.66782"/><path class="bab45f9a-33b2-4fb2-87f8-866685801f4e" d="M198.22045,53.1005v2.49859H188.07V52.78824a4.38057,4.38057,0,0,1,1.249-3.35756,8.03992,8.03992,0,0,1,3.74814-1.74388,3.14821,3.14821,0,0,0,2.108-1.14478,3.05852,3.05852,0,0,0,.39059-1.45755,2.45006,2.45006,0,0,0-.57265-1.58775,2.21639,2.21639,0,0,0-1.82221-.70284,2.51617,2.51617,0,0,0-1.89949.72877,2.87937,2.87937,0,0,0-.70284,2.08208V46.542h-2.81085v-.93729a5.35245,5.35245,0,0,1,1.4311-3.74763,5.265,5.265,0,0,1,4.08634-1.56182,5.85179,5.85179,0,0,1,2.21227.39059,4.5226,4.5226,0,0,1,1.58775,1.041,4.59613,4.59613,0,0,1,.96271,1.50943,4.72181,4.72181,0,0,1,.33872,1.74388,5.52441,5.52441,0,0,1-.9373,3.22737,5.28438,5.28438,0,0,1-3.43537,1.87407,5.32767,5.32767,0,0,0-2.49859,1.041,2.25059,2.25059,0,0,0-.62452,1.66555v.31226Z"/><polygon class="bab45f9a-33b2-4fb2-87f8-866685801f4e" points="77.38 151.209 86.199 151.209 86.199 123.965 77.674 123.965 77.674 120.437 90.021 120.437 90.021 151.209 98.841 151.209 98.841 154.737 77.38 154.737 77.38 151.209"/><path class="bab45f9a-33b2-4fb2-87f8-866685801f4e" d="M123.65552,150.62061h-.58789a7.9682,7.9682,0,0,1-3.25879,3.626,8.78936,8.78936,0,0,1-4.38574,1.17627,12.08644,12.08644,0,0,1-4.459-.80859,10.10543,10.10543,0,0,1-3.60157-2.40088,11.32929,11.32929,0,0,1-2.42529-3.89551,14.883,14.883,0,0,1-.88183-5.34082v-.78418a14.73673,14.73673,0,0,1,.88183-5.292,11.34312,11.34312,0,0,1,2.42529-3.89551,10.41407,10.41407,0,0,1,3.60157-2.42578,11.52358,11.52358,0,0,1,4.36132-.833,9.35374,9.35374,0,0,1,4.53223,1.10254,7.74539,7.74539,0,0,1,3.21,3.40576h.58789v-3.82226h3.82129v19.30615q0,1.47,1.32324,1.47021h1.22559v3.52784H127.428a3.63423,3.63423,0,0,1-2.71972-1.07813,3.76194,3.76194,0,0,1-1.05274-2.74365Zm-7.83984,1.17627a7.74184,7.74184,0,0,0,3.16016-.63721,6.99418,6.99418,0,0,0,2.4746-1.813,8.672,8.672,0,0,0,1.61719-2.81738,10.7712,10.7712,0,0,0,.58789-3.65039V142.291a10.6248,10.6248,0,0,0-.58789-3.60157,8.44356,8.44356,0,0,0-1.6416-2.81787,7.5382,7.5382,0,0,0-2.499-1.8374,7.39267,7.39267,0,0,0-3.11133-.66113,7.5843,7.5843,0,0,0-3.13672.63672,7.46027,7.46027,0,0,0-2.47461,1.78857,8.16986,8.16986,0,0,0-1.6416,2.793,10.62478,10.62478,0,0,0-.58789,3.60156v.78418a9.12343,9.12343,0,0,0,2.18066,6.49219A7.40046,7.40046,0,0,0,115.81568,151.79688Z"/><path class="bab45f9a-33b2-4fb2-87f8-866685801f4e" d="M141.51121,154.73682H137.689V120.437h3.82226v13.81787h.5879a8.41386,8.41386,0,0,1,3.52832-3.35644,10.61768,10.61768,0,0,1,4.89941-1.15186,11.03861,11.03861,0,0,1,4.26367.833,10.68625,10.68625,0,0,1,3.55176,2.40137,11.37919,11.37919,0,0,1,2.45019,3.87109,14.22435,14.22435,0,0,1,.90625,5.24268v.98a14.73117,14.73117,0,0,1-.88183,5.292,11.07917,11.07917,0,0,1-2.42481,3.87109,10.26727,10.26727,0,0,1-3.60156,2.37647,11.82007,11.82007,0,0,1-4.36133.80859,11.18471,11.18471,0,0,1-2.40136-.26953,9.64019,9.64019,0,0,1-2.32715-.833,10.04266,10.04266,0,0,1-2.03321-1.37207,7.25328,7.25328,0,0,1-1.56835-1.93554h-.5879Zm8.13379-2.93994a8.31647,8.31647,0,0,0,3.23438-.6128,7.69612,7.69612,0,0,0,2.57226-1.73926,7.83643,7.83643,0,0,0,1.71485-2.74414,10.17154,10.17154,0,0,0,.6123-3.626v-.98a9.82964,9.82964,0,0,0-.6123-3.55225,8.15574,8.15574,0,0,0-1.71485-2.74414,7.79073,7.79073,0,0,0-2.59668-1.78857,8.10893,8.10893,0,0,0-3.21-.63672,7.66743,7.66743,0,0,0-3.18457.66113,7.98732,7.98732,0,0,0-2.57324,1.8374,8.63354,8.63354,0,0,0-1.73926,2.81787,9.87523,9.87523,0,0,0-.63672,3.60157v.58789a10.01,10.01,0,0,0,.63672,3.65039,8.62107,8.62107,0,0,0,1.73926,2.81738,7.6612,7.6612,0,0,0,2.57324,1.813A7.90848,7.90848,0,0,0,149.645,151.79688Z"/><path class="bab45f9a-33b2-4fb2-87f8-866685801f4e" d="M172.38983,136.70459a2.98775,2.98775,0,0,0,1.49511,2.69531q1.49415.93091,5.46289,1.2251a12.31053,12.31053,0,0,1,6.49317,2.0332,5.80343,5.80343,0,0,1,2.22949,4.92481v.29394a6.86952,6.86952,0,0,1-.71094,3.16016,7.04692,7.04692,0,0,1-1.96,2.37646,8.78875,8.78875,0,0,1-3.03808,1.49463,15.55242,15.55242,0,0,1-8.77051-.24511,10.07234,10.07234,0,0,1-3.38037-2.00879,8.353,8.353,0,0,1-2.03418-2.8418,9.51556,9.51556,0,0,1-.78418-3.20947l3.62695-.88233a6.49678,6.49678,0,0,0,2.15479,4.4834,7.4099,7.4099,0,0,0,5.09668,1.69092,7.926,7.926,0,0,0,4.33593-1.05371,3.3333,3.3333,0,0,0,1.64161-2.96436A3.08216,3.08216,0,0,0,182.631,144.937a13.49906,13.49906,0,0,0-5.24317-1.12695,12.22385,12.22385,0,0,1-6.46728-1.96045,5.65514,5.65514,0,0,1-2.25391-4.85059v-.29443a6.01,6.01,0,0,1,.73535-3.01318,6.6545,6.6545,0,0,1,1.98438-2.18067,9.1129,9.1129,0,0,1,2.81689-1.32275,12.06448,12.06448,0,0,1,3.28321-.44141,12.27885,12.27885,0,0,1,4.21386.66162,9.73,9.73,0,0,1,3.03807,1.71534,7.46917,7.46917,0,0,1,1.88674,2.42529,9.37887,9.37887,0,0,1,.85742,2.74414l-3.626.88183a5.19634,5.19634,0,0,0-1.88671-3.6748,6.62145,6.62145,0,0,0-4.28809-1.32324,8.80649,8.80649,0,0,0-1.98438.2207,5.80226,5.80226,0,0,0-1.69043.66113,3.63558,3.63558,0,0,0-1.17578,1.10254A2.719,2.719,0,0,0,172.38983,136.70459Z"/><path class="bab45f9a-33b2-4fb2-87f8-866685801f4e" d="M175.716,44.12891H163.3825v2.48571H175.716Zm-24.66651,0H138.716v2.48571h12.33349Zm-24.667,0h-12.333v2.48571h12.333Zm-24.6665,0H89.3825v2.48571H101.716Zm73.999,55.51428H163.382v2.48572h12.333Zm-24.6665,0h-12.333v2.48572h12.333Zm-24.66651,0H114.04852v2.48572H126.382Zm-24.6665,0H89.382v2.48572h12.3335Z"/></g></svg>