<svg xmlns="http://www.w3.org/2000/svg" width="242" height="242" viewBox="0 0 242 242">
  <g fill="none" fill-rule="evenodd">
    <circle cx="121" cy="121" r="121" fill="#000"/>
    <path fill="#FFF" fill-rule="nonzero" d="M140.192383,179.660156 L140.192383,171.882812 L136.683356,171.882339 C130.022429,171.869721 125.800992,171.604742 124.019043,171.087402 C122.192546,170.557129 121.279297,169.290365 121.279297,167.287109 L121.279297,167.287109 L121.279297,71.1308594 L136.303711,71.1308594 C141.488607,71.1308594 145.406738,71.6905924 148.058105,72.8100586 C150.709473,73.9295247 152.860026,75.9033203 154.509766,78.7314453 C155.334635,80.1455078 156.159505,82.0309245 156.984375,84.3876953 C157.809245,86.7444661 159.223307,91.4580078 161.226562,98.5283203 L161.226562,98.5283203 L167.943359,98.5283203 L166.352539,63 L59.5908203,63 L58,98.5283203 L64.7167969,98.5283203 C66.7200521,91.4580078 68.1341146,86.7444661 68.9589844,84.3876953 C69.7838542,82.0309245 70.608724,80.1455078 71.4335938,78.7314453 C73.0833333,75.9033203 75.2338867,73.9295247 77.8852539,72.8100586 C80.5366211,71.6905924 84.4547526,71.1308594 89.6396484,71.1308594 L89.6396484,71.1308594 L104.664062,71.1308594 L104.664062,167.287109 C104.664062,169.290365 103.750814,170.557129 101.924316,171.087402 C100.097819,171.617676 95.7083333,171.882812 88.7558594,171.882812 L85.7509766,171.882812 L85.7509766,179.660156 L140.192383,179.660156 Z M180.848633,179.660156 L184.560547,140.243164 L177.490234,140.243164 C176.19401,146.606445 174.721029,151.732422 173.071289,155.621094 C171.421549,159.509766 169.418294,162.632487 167.061523,164.989258 C164.586914,167.346029 161.464193,169.025228 157.693359,170.026855 C153.922526,171.028483 148.560872,171.529297 141.608398,171.529297 L141.608398,171.529297 L121.28125,171.529297 L121.28125,75.3730469 C121.28125,73.3697917 122.194499,72.1030273 124.020996,71.5727539 C125.847493,71.0424805 130.236979,70.7773438 137.189453,70.7773438 L137.189453,70.7773438 L137.189453,63 L88.7578125,63 L88.7578125,70.7773438 C95.7102865,70.7773438 100.099772,71.0424805 101.92627,71.5727539 C103.752767,72.1030273 104.666016,73.3697917 104.666016,75.3730469 L104.666016,75.3730469 L104.666016,167.287109 C104.666016,169.290365 103.752767,170.557129 101.92627,171.087402 C100.099772,171.617676 95.7102865,171.882812 88.7578125,171.882812 L88.7578125,171.882812 L88.7578125,179.660156 L180.848633,179.660156 Z"/>
  </g>
</svg>
