<!-- Generator: Adobe Illustrator 23.0.2, SVG Export Plug-In  -->
<svg version="1.1" xmlns="http://www.w3.org/2000/svg" xmlns:xlink="http://www.w3.org/1999/xlink" x="0px" y="0px" width="71.1px"
	 height="21.3px" viewBox="0 0 71.1 21.3" style="enable-background:new 0 0 71.1 21.3;" xml:space="preserve">
<defs>
</defs>
<g>
	<g>
		<path d="M9.7,0v1.3H4.1V0H9.7z"/>
		<path d="M20.9,0v1.3h-5.6V0H20.9z"/>
		<path d="M35.2,0v1.3h-5.6V0H35.2z"/>
		<path d="M40.8,0v1.3h-5.6V0H40.8z"/>
		<path d="M46.4,0v1.3h-5.6V0H46.4z"/>
		<path d="M59.9,0v1.3h-5.6V0H59.9z"/>
		<path d="M5,10c1.1-0.9,1.7-2,1.7-3.5C6.7,5,6.1,4,5,3.1l1-0.6c1.5,0.9,2.2,2.4,2.2,4.1c0,1.6-0.8,3.2-2.2,4.2L5,10z"/>
		<path d="M10.5,10c1.1-0.9,1.7-2,1.7-3.5c0-1.5-0.6-2.6-1.7-3.4l1-0.6c1.5,0.9,2.2,2.4,2.2,4.1c0,1.6-0.8,3.2-2.2,4.2L10.5,10z"/>
		<path d="M21.7,10c1.1-0.9,1.7-2,1.7-3.5c0-1.5-0.6-2.6-1.7-3.4l1-0.6C24.2,3.3,25,4.9,25,6.5c0,1.6-0.8,3.2-2.2,4.2L21.7,10z"/>
		<path d="M30.5,10c1.1-0.9,1.7-2,1.7-3.5c0-1.5-0.6-2.6-1.7-3.4l1-0.6c1.5,0.9,2.2,2.4,2.2,4.1c0,1.6-0.8,3.2-2.2,4.2L30.5,10z"/>
		<path d="M36.1,10c1.1-0.9,1.7-2,1.7-3.5c0-1.5-0.6-2.6-1.7-3.4l1-0.6c1.5,0.9,2.2,2.4,2.2,4.1c0,1.6-0.8,3.2-2.2,4.2L36.1,10z"/>
		<path d="M46.4,10v1.3h-5.6V10H46.4z"/>
		<path d="M47.2,10c1.1-0.9,1.7-2,1.7-3.5c0-1.5-0.6-2.6-1.7-3.4l1-0.6c1.5,0.9,2.2,2.4,2.2,4.1c0,1.6-0.8,3.2-2.2,4.2L47.2,10z"/>
		<path d="M55.2,10c1.1-0.9,1.7-2,1.7-3.5c0-1.5-0.6-2.6-1.7-3.4l1-0.6c1.5,0.9,2.2,2.4,2.2,4.1c0,1.6-0.8,3.2-2.2,4.2L55.2,10z"/>
		<path d="M60.8,10c1.1-0.9,1.7-2,1.7-3.5c0-1.5-0.6-2.6-1.7-3.4l1-0.6C63.3,3.3,64,4.9,64,6.5c0,1.6-0.8,3.2-2.2,4.2L60.8,10z"/>
		<path d="M0,16.5c0-1.7,0.8-3.2,2.2-4.1l1,0.6C2.2,14,1.6,15,1.6,16.5c0,1.5,0.6,2.6,1.7,3.5l-1.1,0.7C0.8,19.8,0,18.1,0,16.5z"/>
		<path d="M5.6,16.5c0-1.7,0.8-3.2,2.2-4.1l1,0.6C7.8,14,7.2,15,7.2,16.5c0,1.5,0.6,2.6,1.7,3.5l-1.1,0.7
			C6.4,19.8,5.6,18.1,5.6,16.5z"/>
		<path d="M15.3,20v1.3H9.7V20H15.3z"/>
		<path d="M16.7,16.5c0-1.7,0.8-3.2,2.2-4.1l1,0.6c-1.1,0.9-1.7,1.9-1.7,3.4c0,1.5,0.6,2.6,1.7,3.5l-1.1,0.7
			C17.5,19.8,16.7,18.1,16.7,16.5z"/>
		<path d="M25.5,16.5c0-1.7,0.8-3.2,2.2-4.1l1,0.6c-1.1,0.9-1.7,1.9-1.7,3.4c0,1.5,0.6,2.6,1.7,3.5l-1.1,0.7
			C26.3,19.8,25.5,18.1,25.5,16.5z"/>
		<path d="M31.1,16.5c0-1.7,0.8-3.2,2.2-4.1l1,0.6c-1.1,0.9-1.7,1.9-1.7,3.4c0,1.5,0.6,2.6,1.7,3.5l-1.1,0.7
			C31.9,19.8,31.1,18.1,31.1,16.5z"/>
		<path d="M50.2,16.5c0-1.7,0.8-3.2,2.2-4.1l1,0.6c-1.1,0.9-1.7,1.9-1.7,3.4c0,1.5,0.6,2.6,1.7,3.5l-1.1,0.7
			C51,19.8,50.2,18.1,50.2,16.5z"/>
		<path d="M55.8,16.5c0-1.7,0.8-3.2,2.2-4.1l1,0.6C58,14,57.4,15,57.4,16.5c0,1.5,0.6,2.6,1.7,3.5L58,20.7
			C56.6,19.8,55.8,18.1,55.8,16.5z"/>
		<path d="M65.5,20v1.3h-5.6V20H65.5z"/>
		<path d="M71.1,20v1.3h-5.6V20H71.1z"/>
	</g>
</g>
</svg>
