<svg xmlns="http://www.w3.org/2000/svg" viewBox="0 0 367.54583 200"><defs><style>.\38 6da1470-48da-45d3-a788-d5b1c02d1e82{fill:#0c120c;}</style></defs><title>word-nobg</title><g id="67746601-225f-4c30-8a3a-88c0536c3ca7" data-name="HORIZONTAL"><g id="6ced467e-ed4e-4416-a365-736fc5211719" data-name="labs"><path class="86da1470-48da-45d3-a788-d5b1c02d1e82" d="M155.13433,117.316h11.05255v-34.141h-10.6842v-4.4209h15.47345V117.316H182.0293v4.4209h-26.895Z"/><path class="86da1470-48da-45d3-a788-d5b1c02d1e82" d="M209.11612,116.5787h-.73671a9.98424,9.98424,0,0,1-4.08314,4.54389,11.01611,11.01611,0,0,1-5.496,1.474,15.146,15.146,0,0,1-5.58777-1.01329,12.66341,12.66341,0,0,1-4.51329-3.00866A14.20625,14.20625,0,0,1,185.66,113.693a18.6504,18.6504,0,0,1-1.10508-6.69284v-.9827A18.46722,18.46722,0,0,1,185.66,99.38584a14.2237,14.2237,0,0,1,3.03925-4.88165,13.05027,13.05027,0,0,1,4.51329-3.03987,14.441,14.441,0,0,1,5.4654-1.04388,11.7249,11.7249,0,0,1,5.67955,1.38165,9.70827,9.70827,0,0,1,4.022,4.26792h.73671V91.28015H213.906v24.19348q0,1.84209,1.65761,1.8424h1.53523v4.4209h-3.25464a4.5519,4.5519,0,0,1-3.40761-1.35106,4.71022,4.71022,0,0,1-1.32046-3.4382Zm-9.82449,1.474a9.70253,9.70253,0,0,0,3.96076-.79851,8.7593,8.7593,0,0,0,3.10105-2.272,10.855,10.855,0,0,0,2.026-3.5306,13.483,13.483,0,0,0,.73671-4.57448v-.73672a13.29955,13.29955,0,0,0-.73671-4.51329,10.57091,10.57091,0,0,0-2.05717-3.53121,9.43417,9.43417,0,0,0-3.13165-2.30254,9.26,9.26,0,0,0-3.899-.8285,9.50343,9.50343,0,0,0-3.93016.7979,9.34059,9.34059,0,0,0-3.10045,2.24135,10.20907,10.20907,0,0,0-2.05717,3.5,13.29955,13.29955,0,0,0-.73671,4.51329v.9827q0,5.21972,2.73208,8.13568A9.27347,9.27347,0,0,0,199.29163,118.05274Z"/><path class="86da1470-48da-45d3-a788-d5b1c02d1e82" d="M227.756,121.73693h-4.78987V78.75416H227.756V96.07h.73672a10.54583,10.54583,0,0,1,4.4209-4.20612,13.31051,13.31051,0,0,1,6.14091-1.44345,13.82713,13.82713,0,0,1,5.3418,1.04388,13.40283,13.40283,0,0,1,4.4521,3.00927,14.26807,14.26807,0,0,1,3.06985,4.85106,17.83772,17.83772,0,0,1,1.13628,6.56985v1.22807a18.44658,18.44658,0,0,1-1.10569,6.63165,13.87628,13.87628,0,0,1-3.03925,4.85106,12.8501,12.8501,0,0,1-4.51329,2.97806,14.809,14.809,0,0,1-5.46479,1.01329,14.00661,14.00661,0,0,1-3.00865-.33776A12.06664,12.06664,0,0,1,233.006,121.215a12.60611,12.60611,0,0,1-2.54852-1.7194,9.11129,9.11129,0,0,1-1.96477-2.42553H227.756Zm10.19285-3.68419a10.41435,10.41435,0,0,0,4.05254-.76792,9.635,9.635,0,0,0,3.22405-2.17955,9.82038,9.82038,0,0,0,2.14895-3.43882,12.74621,12.74621,0,0,0,.76792-4.54388V105.8945a12.31789,12.31789,0,0,0-.76792-4.45149,10.22051,10.22051,0,0,0-2.14895-3.43882,9.7598,9.7598,0,0,0-3.25464-2.24135,10.15889,10.15889,0,0,0-4.022-.7979,9.61322,9.61322,0,0,0-3.99135.8285A10.00439,10.00439,0,0,0,230.734,98.096a10.82018,10.82018,0,0,0-2.18016,3.53121,12.37485,12.37485,0,0,0-.79791,4.51329v.73672a12.54376,12.54376,0,0,0,.79791,4.57448,10.80442,10.80442,0,0,0,2.18016,3.5306,9.59576,9.59576,0,0,0,3.22343,2.272A9.91552,9.91552,0,0,0,237.94881,118.05274Z"/><path class="86da1470-48da-45d3-a788-d5b1c02d1e82" d="M263.31038,99.13986a3.7436,3.7436,0,0,0,1.873,3.37763q1.87239,1.16657,6.84643,1.53523,5.34178.42954,8.13629,2.5479a7.271,7.271,0,0,1,2.79388,6.17152v.36836a8.61623,8.61623,0,0,1-.89091,3.96014,8.831,8.831,0,0,1-2.45612,2.97807,11.01609,11.01609,0,0,1-3.80656,1.873,19.49153,19.49153,0,0,1-10.99136-.30717,12.64038,12.64038,0,0,1-4.23734-2.51731,10.47226,10.47226,0,0,1-2.5479-3.5612,11.91,11.91,0,0,1-.9827-4.02194l4.54389-1.10569a8.13569,8.13569,0,0,0,2.7021,5.61837,9.28142,9.28142,0,0,0,6.38568,2.119,9.93334,9.93334,0,0,0,5.43419-1.32046,4.17586,4.17586,0,0,0,2.05717-3.71477,3.86241,3.86241,0,0,0-2.02658-3.68419,16.90984,16.90984,0,0,0-6.56985-1.41224q-5.28213-.369-8.1057-2.45673a7.08676,7.08676,0,0,1-2.82448-6.07851v-.369a7.53753,7.53753,0,0,1,.9209-3.776,8.35431,8.35431,0,0,1,2.48732-2.73269,11.42991,11.42991,0,0,1,3.5306-1.65761,15.12069,15.12069,0,0,1,4.11374-.55315,15.38592,15.38592,0,0,1,5.28121.82911,12.18666,12.18666,0,0,1,3.80717,2.14957,9.35818,9.35818,0,0,1,2.36373,3.03925,11.73507,11.73507,0,0,1,1.07448,3.43882l-4.54389,1.10507a6.509,6.509,0,0,0-2.36373-4.60508,8.29817,8.29817,0,0,0-5.373-1.65822,11.02358,11.02358,0,0,0-2.48671.27658,7.26775,7.26775,0,0,0-2.119.82849,4.5618,4.5618,0,0,0-1.47343,1.38165A3.40688,3.40688,0,0,0,263.31038,99.13986Z"/></g><g id="9ea5e5f1-5c12-4471-bad3-8e6037d65bc1" data-name="square 2"><rect class="86da1470-48da-45d3-a788-d5b1c02d1e82" x="96.35839" y="71.71501" width="14.66782" height="2.48594"/><polygon class="86da1470-48da-45d3-a788-d5b1c02d1e82" points="77.176 78.716 74.69 78.716 74.69 71.715 81.691 71.715 81.691 74.201 77.176 74.201 77.176 78.716"/><rect class="86da1470-48da-45d3-a788-d5b1c02d1e82" x="74.68994" y="93.38346" width="2.48594" height="14.66782"/><polygon class="86da1470-48da-45d3-a788-d5b1c02d1e82" points="81.691 129.72 74.69 129.72 74.69 122.72 77.176 122.72 77.176 127.234 81.691 127.234 81.691 129.72"/><rect class="86da1470-48da-45d3-a788-d5b1c02d1e82" x="96.35839" y="127.23428" width="14.66782" height="2.48594"/><polygon class="86da1470-48da-45d3-a788-d5b1c02d1e82" points="132.695 129.72 125.695 129.72 125.695 127.234 130.209 127.234 130.209 122.72 132.695 122.72 132.695 129.72"/><rect class="86da1470-48da-45d3-a788-d5b1c02d1e82" x="130.20921" y="93.38346" width="2.48594" height="14.66782"/><path class="86da1470-48da-45d3-a788-d5b1c02d1e82" d="M135.85192,80.69159v2.49859H125.70143V80.37933a4.38059,4.38059,0,0,1,1.249-3.35757,8.04012,8.04012,0,0,1,3.74814-1.74388,3.14821,3.14821,0,0,0,2.108-1.14477,3.05855,3.05855,0,0,0,.39058-1.45756,2.45007,2.45007,0,0,0-.57264-1.58775,2.21639,2.21639,0,0,0-1.82221-.70284,2.51613,2.51613,0,0,0-1.89949.72878A2.87934,2.87934,0,0,0,128.2,73.19581v.9373h-2.81085v-.9373a5.35247,5.35247,0,0,1,1.4311-3.74763,5.265,5.265,0,0,1,4.08634-1.56181,5.8518,5.8518,0,0,1,2.21227.39058,4.52257,4.52257,0,0,1,1.58775,1.041,4.596,4.596,0,0,1,.96271,1.50942,4.72183,4.72183,0,0,1,.33871,1.74388,5.52436,5.52436,0,0,1-.93729,3.22737,5.28445,5.28445,0,0,1-3.43537,1.87408,5.32768,5.32768,0,0,0-2.49859,1.041,2.25061,2.25061,0,0,0-.62452,1.66556v.31226Z"/></g></g></svg>