<svg xmlns="http://www.w3.org/2000/svg" viewBox="0 0 750 504.05052"><title>c3p-1</title><g id="1deb22f3-9373-4cd8-8af3-a01f9e75cd15" data-name="person"><path d="M59.77481,140.86939q-12.64638-14.16476-12.64188-38.11012,0-23.94313,12.64188-38.91093A49.35638,49.35638,0,0,1,91.58648,46.19018q-10.27773,4.69009-15.71463,16.7584Q70.44617,75.02131,70.34271,91.584q-.10122,22.445,10.17649,34.21858,10.271,11.67461,25.48623,11.6746a40.84226,40.84226,0,0,0,26.66943-9.38019q-4.25145,9.77838-14.42345,18.35549-10.1765,8.58391-28.05059,8.68286-17.78188-.10122-30.426-14.266m46.7255-65.74684a11.13887,11.13887,0,0,1-3.75658-8.27794,16.285,16.285,0,0,1,2.074-8.58388,15.24694,15.24694,0,0,1,5.63261-5.78559,22.71959,22.71959,0,0,0-5.23671-6.285,35.76141,35.76141,0,0,1,16.99232,6.186q6.917,4.88584,6.9148,11.67463,0,6.77538-3.85106,10.77037a12.03081,12.03081,0,0,1-9.38469,3.89154,13.03575,13.03575,0,0,1-9.38468-3.59014"/><path d="M151.375,36.21207q0-13.46964-2.96478-18.2565-2.96928-4.79132-13.24024-8.37693A161.997,161.997,0,0,0,174.19333.00051V126.30239q0,12.27524,2.56886,17.46022,2.56438,5.18946,11.16175,8.87631H137.34741q8.49615-3.68462,11.26072-8.87631,2.76681-5.1895,2.76683-17.46022Z"/><path d="M213.03273,65.44409A54.09782,54.09782,0,0,1,243.9491,46.98965q-8.88756,5.68886-13.8296,20.64993a103.53712,103.53712,0,0,0-4.93978,32.62146,111.614,111.614,0,0,0,4.64287,32.82391q4.64285,15.17028,13.73061,20.75339a51.36377,51.36377,0,0,1-30.81741-18.55793q-12.255-14.96109-12.25048-35.11835,0-20.15055,12.54742-34.718"/><path d="M324.89,118.11939q13.53045,29.63868,27.95613,36.31505-16.59415-1.39017-27.56021-6.8833Zm36.15311-4.78684q-7.99677-3.79259-16.10155-8.179A42.67359,42.67359,0,0,1,331.211,93.38a27.79114,27.79114,0,0,1-5.7271-17.55918,25.85435,25.85435,0,0,1,6.91481-17.85611,34.3766,34.3766,0,0,1,17.7796-10.37894q-10.47343,5.49312-10.4689,17.85611,0,10.77709,19.95257,20.155,8.30043,3.89381,16.69538,8.38143a45.34537,45.34537,0,0,1,14.32,11.97157q5.93178,7.38268,5.83059,18.35548a26.52833,26.52833,0,0,1-7.99907,19.15627q-8.0035,8.179-20.74888,10.57688,12.55191-6.087,12.54741-19.95257,0-11.67465-19.26424-20.75339m28.15408-34.02064q-1.78161-8.874-9.97855-19.25525-8.19927-10.37217-14.221-13.66761a98.9199,98.9199,0,0,1,24.19957,5.29067Z"/><path d="M444.83544,93.97742q27.95835-5.29068,33.78666-6.8833,0-33.31653-12.54742-40.50352,15.21753,1.29568,24.20406,11.07177,8.98879,9.77837,8.98879,29.62973v6.68532Z"/></g><g id="2a2e8890-7563-4619-ba1c-e095d3aa36a1" data-name="third"><path d="M59.77481,140.86939q-12.64638-14.16476-12.64188-38.11012,0-23.94313,12.64188-38.91093A49.35638,49.35638,0,0,1,91.58648,46.19018q-10.27773,4.69009-15.71463,16.7584Q70.44617,75.02131,70.34271,91.584q-.10122,22.445,10.17649,34.21858,10.271,11.67461,25.48623,11.6746a40.84226,40.84226,0,0,0,26.66943-9.38019q-4.25145,9.77838-14.42345,18.35549-10.1765,8.58391-28.05059,8.68286-17.78188-.10122-30.426-14.266m46.7255-65.74684a11.13887,11.13887,0,0,1-3.75658-8.27794,16.285,16.285,0,0,1,2.074-8.58388,15.24694,15.24694,0,0,1,5.63261-5.78559,22.71959,22.71959,0,0,0-5.23671-6.285,35.76141,35.76141,0,0,1,16.99232,6.186q6.917,4.88584,6.9148,11.67463,0,6.77538-3.85106,10.77037a12.03081,12.03081,0,0,1-9.38469,3.89154,13.03575,13.03575,0,0,1-9.38468-3.59014"/><path d="M151.375,36.21207q0-13.46964-2.96478-18.2565-2.96928-4.79132-13.24024-8.37693A161.997,161.997,0,0,0,174.19333.00051V126.30239q0,12.27524,2.56886,17.46022,2.56438,5.18946,11.16175,8.87631H137.34741q8.49615-3.68462,11.26072-8.87631,2.76681-5.1895,2.76683-17.46022Z"/><path d="M213.03273,65.44409A54.09782,54.09782,0,0,1,243.9491,46.98965q-8.88756,5.68886-13.8296,20.64993a103.53712,103.53712,0,0,0-4.93978,32.62146,111.614,111.614,0,0,0,4.64287,32.82391q4.64285,15.17028,13.73061,20.75339a51.36377,51.36377,0,0,1-30.81741-18.55793q-12.255-14.96109-12.25048-35.11835,0-20.15055,12.54742-34.718"/><path d="M324.89,118.11939q13.53045,29.63868,27.95613,36.31505-16.59415-1.39017-27.56021-6.8833Zm36.15311-4.78684q-7.99677-3.79259-16.10155-8.179A42.67359,42.67359,0,0,1,331.211,93.38a27.79114,27.79114,0,0,1-5.7271-17.55918,25.85435,25.85435,0,0,1,6.91481-17.85611,34.3766,34.3766,0,0,1,17.7796-10.37894q-10.47343,5.49312-10.4689,17.85611,0,10.77709,19.95257,20.155,8.30043,3.89381,16.69538,8.38143a45.34537,45.34537,0,0,1,14.32,11.97157q5.93178,7.38268,5.83059,18.35548a26.52833,26.52833,0,0,1-7.99907,19.15627q-8.0035,8.179-20.74888,10.57688,12.55191-6.087,12.54741-19.95257,0-11.67465-19.26424-20.75339m28.15408-34.02064q-1.78161-8.874-9.97855-19.25525-8.19927-10.37217-14.221-13.66761a98.9199,98.9199,0,0,1,24.19957,5.29067Z"/><path d="M444.83544,93.97742q27.95835-5.29068,33.78666-6.8833,0-33.31653-12.54742-40.50352,15.21753,1.29568,24.20406,11.07177,8.98879,9.77837,8.98879,29.62973v6.68532Z"/><path d="M15.11251,226.82879H.00074q13.72611-7.28145,21.82862-14.068A103.57339,103.57339,0,0,0,37.634,195.80443v25.33776H64.6993v5.6866H37.634v68.83756q0,8.982,4.4449,13.969,4.44716,5.08824,12.34946,5.08825a30.38375,30.38375,0,0,0,14.72038-3.6936,36.65876,36.65876,0,0,1-11.16625,10.87382,29.47722,29.47722,0,0,1-16.69539,4.98928q-12.93657,0-19.55669-7.58064Q15.11027,311.7274,15.11251,294.87Z"/><path d="M87.14652,209.46939q0-13.66539-2.8658-18.45447-2.8613-4.79131-13.33471-8.78182,15.79785-1.39692,39.01439-9.57817v125.906q0,12.6734,2.77131,17.95958,2.76682,5.28394,11.16176,8.77734H73.31693q8.49615-3.69135,11.16174-8.97979,2.66561-5.28394,2.66785-17.75713Zm66.5791,43.69771q.10122-10.67585-5.83057-16.46143a19.62117,19.62117,0,0,0-14.221-5.78559,60.14492,60.14492,0,0,0-16.205,2.19548q12.255-14.46844,26.87187-14.46844t23.11531,8.4804q8.49615,8.48266,8.49391,27.03834V296.2665q0,14.46844,2.46989,19.95259,2.57112,5.38515,11.26072,9.07876H139.896q8.49615-3.69135,11.16175-8.97979,2.67234-5.28394,2.66785-17.75713Z"/><path d="M236.05,202.48439a12.79873,12.79873,0,0,1-9.28573,3.89157,12.47825,12.47825,0,0,1-9.18674-3.89157,12.607,12.607,0,0,1-3.85554-9.17771,12.93994,12.93994,0,0,1,3.85554-9.27673,12.34057,12.34057,0,0,1,9.18674-3.99052A12.65428,12.65428,0,0,1,236.05,184.03a12.4268,12.4268,0,0,1,3.851,9.27673,12.62017,12.62017,0,0,1-3.851,9.17771"/><path d="M277.85184,255.46244q0-13.76661-2.86128-18.55343-2.86808-4.79131-13.33922-8.68287,14.32671-1.3969,38.42952-9.57814v79.91382q0,12.67339,3.15824,17.85611,3.16492,5.18946,13.23571,8.88081H264.12123q8.48941-3.69135,11.06278-8.9798,2.56437-5.28393,2.66783-17.75712Zm54.62556-13.56867a12.80413,12.80413,0,0,1-9.47918,3.89155A13.23154,13.23154,0,0,1,309.56,232.31564a13.40473,13.40473,0,0,1,3.85552-9.67712,12.78558,12.78558,0,0,1,9.58266-3.99052,12.46427,12.46427,0,0,1,9.47918,3.99052,13.41917,13.41917,0,0,1,3.851,9.67712,13.08241,13.08241,0,0,1-3.851,9.57813"/><path d="M352.94693,238.10391a58.7612,58.7612,0,0,1,36.15757-18.85937q-12.34947,4.6901-20.15052,19.05731-7.80786,14.36722-7.81008,33.32328.10122,19.1518,10.37445,31.42477,10.27093,12.27522,25.68417,12.273a31.04961,31.04961,0,0,0,9.48367-1.69608q-12.05255,14.06354-27.85714,14.06354t-28.24854-13.56416q-12.45071-13.57092-12.44843-36.91342,0-23.34924,14.81485-39.10885m60.35714-47.5893q-3.15825-4.79131-14.12656-8.27794a170.3349,170.3349,0,0,0,40.10763-9.57814V289.18431q0,15.76413,2.76684,20.74891,2.76679,4.99375,13.4337,8.78183a179.51246,179.51246,0,0,0-39.11787,9.07876V231.71547a35.94692,35.94692,0,0,0-12.345-12.47093,120.01912,120.01912,0,0,1,12.345,1.39916V208.8701q0-13.46966-3.06374-18.35549"/></g><g id="2ec0564a-11e0-436a-9208-47062b58c067" data-name="close"><path d="M119.80667,368.26946q-2.85453-4.987-13.43369-9.07876a170.86254,170.86254,0,0,0,39.11786-8.78184V447.6794a34.962,34.962,0,0,0,13.93307,11.3777q-11.95131-.6006-13.93307-.8008v17.36123q0,14.07027,2.8658,19.4532,3.06376,5.29071,13.33921,8.97979H108.64942q8.49616-3.68458,11.26073-8.88081,2.76682-5.18273,2.66785-17.65815V388.8204q0-15.56166-2.77133-20.55094m70.92954,5.78557q-9.68386-11.57338-23.21428-11.57114a38.91806,38.91806,0,0,0-13.33472,2.39341q10.966-14.46844,28.74792-14.46844,17.77511,0,29.43625,13.77111,11.65439,13.76661,11.55765,35.51426a59.73885,59.73885,0,0,1-4.54387,23.44372q-7.80785,18.55793-27.56473,29.43175a53.414,53.414,0,0,1-16.59191,5.889q10.46667-5.6956,17.87859-20.254,7.4097-14.56292,7.40969-33.52125-.10125-19.05729-9.78059-30.62846"/><path d="M274.93658,398.39719q27.95833-5.2907,33.78668-6.8833,0-33.32329-12.54742-40.50352,15.21749,1.29567,24.204,11.07626,8.98878,9.7716,8.98879,29.62521v6.68535Z"/><path d="M357.64555,387.22419q0-13.76659-2.8613-18.55343-2.868-4.79131-13.33471-8.68286,14.32-1.39691,38.425-9.57814v79.91382q0,12.67338,3.16274,17.8561,3.15819,5.18947,13.23121,8.88081H343.91945q8.48939-3.69134,11.06278-8.97979,2.57109-5.28395,2.66332-17.75712Zm54.63007-13.56866a12.8142,12.8142,0,0,1-9.48367,3.89155,13.22418,13.22418,0,0,1-13.43369-13.46969,13.41911,13.41911,0,0,1,3.851-9.67711,12.7855,12.7855,0,0,1,9.58266-3.99052,12.474,12.474,0,0,1,9.48367,3.99052,13.41915,13.41915,0,0,1,3.851,9.67711,13.0752,13.0752,0,0,1-3.851,9.57814"/><path d="M425.53515,422.53689q13.53045,29.63871,27.95614,36.31956-16.59415-1.3969-27.56021-6.8878Zm36.15312-4.78232q-7.99677-3.79257-16.10155-8.18348a42.60443,42.60443,0,0,1-13.73059-11.7691,27.8089,27.8089,0,0,1-5.72711-17.55918,25.86528,25.86528,0,0,1,6.91481-17.8606,34.40043,34.40043,0,0,1,17.77961-10.37444q-10.47343,5.4864-10.46891,17.8561,0,10.7771,19.95258,20.155,8.30043,3.887,16.69538,8.37693a45.46414,45.46414,0,0,1,14.32,11.97155q5.93178,7.38943,5.83059,18.35548a26.52841,26.52841,0,0,1-7.99907,19.15628q-8.0035,8.18574-20.74889,10.5769,12.55192-6.087,12.54742-19.95259,0-11.67462-19.26424-20.74889M489.84235,383.734q-1.78161-8.88081-9.97856-19.25525-8.19925-10.37893-14.221-13.66763a99.11517,99.11517,0,0,1,24.19957,5.28619Z"/><path d="M524.44515,369.86386a54.09766,54.09766,0,0,1,30.91636-18.45444q-8.88756,5.68884-13.82958,20.64991a103.53673,103.53673,0,0,0-4.93978,32.62146,111.59294,111.59294,0,0,0,4.64285,32.82392q4.64287,15.16352,13.73062,20.75339a51.36386,51.36386,0,0,1-30.8174-18.55793q-12.255-14.96108-12.25048-35.11835,0-20.15053,12.54741-34.718"/><path d="M648.25283,388.4236q0-15.366-2.76231-20.155-2.77354-4.78456-13.43819-8.67837a171.44929,171.44929,0,0,0,38.23159-9.18224v80.31423q0,12.47093,2.76684,17.55917t11.1617,8.77734H634.32429q8.49618-3.69134,11.26069-8.77734,2.76684-5.08824,2.66785-17.55917ZM708.21861,368.669a19.46178,19.46178,0,0,0-14.131-5.58762,55.70174,55.70174,0,0,0-16.89336,2.69483q12.74766-15.366,28.9459-15.36822,13.139,0,21.63519,8.48492,8.49608,8.4759,8.49385,26.83589v44.593q0,12.47767,2.57339,17.75712,2.5644,5.29746,11.15723,8.97979H700.21505q8.48938-3.69134,11.16176-8.97979,2.67233-5.28395,2.56887-17.75712V384.93246q0-10.67588-5.72707-16.2635"/></g></svg>