<svg xmlns="http://www.w3.org/2000/svg" viewBox="0 0 842.81152 100.79785"><title>hr-1</title><g id="c108097d-7774-4e91-8ee7-de4e3c00dee6" data-name="Layer 2"><g id="3f61952a-3f06-4eab-8f88-808bdae2f0c3" data-name="p0"><path d="M75.31055,21.60059H97.918V80.49512H32.25488v41.90332H9.64746V61.91992H75.31055Z" transform="translate(-9.64746 -21.60059)"/><path d="M184.31738,21.60059h24.91114L156.09375,122.39844H131.32617l20.87988-39.59961L137.9502,62.35156h25.91894Z" transform="translate(-9.64746 -21.60059)"/><path d="M257.03613,21.60059c28.79981,0,39.74317,16.27148,39.74317,35.13476,0,19.2959-10.22364,35.2793-39.74317,35.2793H221.18066V21.60059Zm1.15235,52.55859c12.0957,0,16.84765-8.35156,16.84765-17.2793s-4.89648-17.28027-16.84765-17.28027H242.78027V74.15918Z" transform="translate(-9.64746 -21.60059)"/><path d="M379.43359,21.60059V40.46387H333.49805V21.60059Zm-4.46386,58.751H333.49805V62.92773h41.47168Zm-41.47168,23.1836h45.93554v18.86328H333.49805Z" transform="translate(-9.64746 -21.60059)"/><path d="M472.88672,99.93457l6.76758,22.46387H456.18262l-6.624-21.45606c-4.03125-12.81543-10.22363-13.53515-24.91113-13.53515h-3.88769V69.69531h16.27148c10.94434,0,15.55176-7.05566,15.55176-14.6875,0-7.91992-4.752-14.54394-15.55176-14.54394H420.75977V21.60059H436.167c29.376,0,38.44727,16.12793,38.44727,31.10351,0,13.96778-7.05567,23.1836-24.335,26.207C462.80664,81.35938,468.999,86.97559,472.88672,99.93457Z" transform="translate(-9.64746 -21.60059)"/><path d="M568.64355,99.93457l6.76758,22.46387H551.93945l-6.624-21.45606c-4.03125-12.81543-10.22363-13.53515-24.91113-13.53515h-3.8877V69.69531h16.27149c10.94336,0,15.55175-7.05566,15.55175-14.6875,0-7.91992-4.75195-14.54394-15.55175-14.54394H516.5166V21.60059h15.40723c29.376,0,38.44726,16.12793,38.44726,31.10351,0,13.96778-7.05566,23.1836-24.335,26.207C558.56348,81.35938,564.75586,86.97559,568.64355,99.93457Z" transform="translate(-9.64746 -21.60059)"/><path d="M659.36035,21.60059V40.46387H613.4248V21.60059Zm-4.46387,58.751H613.4248V62.92773h41.47168Zm-41.47168,23.1836h45.93555v18.86328H613.4248Z" transform="translate(-9.64746 -21.60059)"/><path d="M733.37305,83.08691l-13.67969-40.1748H698.81445l7.77539-21.31152h25.91993l36.71875,100.79785H746.76465l-7.48731-22.03125h-19.584V83.08691Z" transform="translate(-9.64746 -21.60059)"/><path d="M803.21191,78.335v24.624H852.459v19.43946H781.17969V78.335Z" transform="translate(-9.64746 -21.60059)"/></g></g></svg>