<?xml version="1.0" encoding="UTF-8"?>
<svg width="500px" height="500px" viewBox="0 0 500 500" version="1.1" xmlns="http://www.w3.org/2000/svg" xmlns:xlink="http://www.w3.org/1999/xlink">
    <!-- Generator: Sketch 52 (66869) - http://www.bohemiancoding.com/sketch -->
    <title>Network Logo</title>
    <desc>Created with Sketch.</desc>
    <g id="Network-Logo" stroke="none" stroke-width="1" fill="none" fill-rule="evenodd">
        <rect fill="#FFFFFF" x="0" y="0" width="500" height="500"></rect>
        <g id="Icon/Network-Logo/Color" transform="translate(100.000000, 100.000000)">
            <path d="M149.720408,240.257159 C127.655905,240.257159 109.764315,222.365569 109.764315,200.301066 C109.764315,178.218654 127.655905,160.344974 149.720408,160.344974 C171.784911,160.344974 189.6765,178.218654 189.6765,200.301066 C189.6765,222.365569 171.784911,240.257159 149.720408,240.257159 Z M46.7590367,137.295788 C24.6945338,137.295788 6.80294426,119.404198 6.80294426,97.3396953 C6.80294426,75.2572829 24.6945338,57.3836029 46.7590367,57.3836029 C68.8235396,57.3836029 86.7151291,75.2572829 86.7151291,97.3396953 C86.7151291,119.404198 68.8235396,137.295788 46.7590367,137.295788 Z M252.419557,137.558009 C230.355055,137.558009 212.463465,119.666419 212.463465,97.6019165 C212.463465,75.5195042 230.355055,57.6458241 252.419557,57.6458241 C274.48406,57.6458241 292.37565,75.5195042 292.37565,97.6019165 C292.37565,119.666419 274.48406,137.558009 252.419557,137.558009 Z" id="Combined-Shape" fill="#FFB400"></path>
            <path d="M84.601469,200.336885 C84.601469,222.401388 66.7456985,240.257159 44.6811956,240.257159 C22.6166927,240.257159 4.76092215,222.401388 4.76092215,200.336885 C4.76092215,178.290292 22.6166927,160.416612 44.6811956,160.416612 C81.4314877,160.416612 109.800134,132.047965 109.800134,95.2976732 C109.800134,73.2331703 127.655905,55.3773997 149.738317,55.3773997 C171.784911,55.3773997 189.640681,73.2331703 189.640681,95.2976732 C189.640681,132.047965 220.104739,160.416612 254.777529,160.416612 C276.824123,160.416612 294.679893,178.290292 294.679893,200.336885 C294.679893,222.401388 276.824123,240.257159 254.777529,240.257159 C232.713026,240.257159 214.839346,222.401388 214.839346,200.336885 C214.839346,165.664095 186.488609,135.217947 149.738317,135.217947 C115.047617,135.217947 84.601469,165.664095 84.601469,200.336885 Z" id="Path" fill="#2C2B2B"></path>
        </g>
    </g>
</svg>