<?xml version="1.0" encoding="UTF-8"?>
<svg width="734px" height="351px" viewBox="0 0 734 351" version="1.1" xmlns="http://www.w3.org/2000/svg" xmlns:xlink="http://www.w3.org/1999/xlink">
    <!-- Generator: Sketch 52 (66869) - http://www.bohemiancoding.com/sketch -->
    <title>Wordmark</title>
    <desc>Created with Sketch.</desc>
    <g id="Wordmark" stroke="none" stroke-width="1" fill="none" fill-rule="evenodd">
        <rect fill="#FFFFFF" x="0" y="0" width="734" height="351"></rect>
        <path d="M186.390625,251 L135.869792,251 C130.059896,251 125.260417,246.34589 125.260417,240.140411 C125.260417,231.866438 118.692708,225.143836 110.609375,225.143836 C104.799479,225.143836 100,220.489726 100,214.284247 L100,110.859589 C100,104.65411 104.799479,100 110.609375,100 C116.671875,100 121.21875,104.65411 121.21875,110.859589 L121.21875,214.284247 C121.21875,222.558219 128.039062,229.280822 135.869792,229.280822 L186.390625,229.280822 C192.453125,229.280822 197,233.934932 197,240.140411 C197,246.34589 192.453125,251 186.390625,251 Z M197,110.5 C197,116.5 192.5,121 186.5,121 C180.75,121 176,116.5 176,110.5 C176,104.5 180.75,100 186.5,100 C192.5,100 197,104.5 197,110.5 Z M186.728261,223.21875 C180.853261,223.21875 176,218.578125 176,212.390625 L176,160.828125 C176,154.640625 180.853261,150 186.728261,150 C192.858696,150 197.456522,154.640625 197.456522,160.828125 L197.456522,212.390625 C197.456522,220.640625 204.353261,227.34375 212.271739,227.34375 C218.402174,227.34375 223,231.984375 223,238.171875 C223,244.101562 218.402174,249 212.271739,249 C206.396739,249 201.543478,244.101562 201.543478,238.171875 C201.543478,229.921875 194.902174,223.21875 186.728261,223.21875 Z M315.390625,224.966942 C307.559896,224.966942 300.739583,231.735537 300.739583,240.066116 C300.739583,246.31405 296.192708,251 290.130208,251 C284.320312,251 279.520833,246.31405 279.520833,240.066116 C279.520833,233.818182 284.320312,229.132231 290.130208,229.132231 C298.213542,229.132231 304.78125,222.103306 304.78125,214.033058 L304.78125,161.966942 C304.78125,153.636364 298.213542,146.867769 290.130208,146.867769 L264.869792,146.867769 C257.039062,146.867769 250.21875,153.636364 250.21875,161.966942 L250.21875,240.066116 C250.21875,246.31405 245.671875,251 239.609375,251 C233.799479,251 229,246.31405 229,240.066116 L229,161.966942 C229,155.719008 233.799479,151.033058 239.609375,151.033058 C247.692708,151.033058 254.260417,144.264463 254.260417,135.933884 C254.260417,129.68595 259.059896,125 264.869792,125 L290.130208,125 C296.192708,125 300.739583,129.68595 300.739583,135.933884 C300.739583,144.004132 307.559896,151.033058 315.390625,151.033058 C321.453125,151.033058 326,155.719008 326,161.966942 L326,214.033058 C326,220.280992 321.453125,224.966942 315.390625,224.966942 Z M405.78125,161.966942 C405.78125,153.636364 399.213542,146.867769 391.130208,146.867769 L365.869792,146.867769 C358.039062,146.867769 351.21875,153.636364 351.21875,161.966942 L351.21875,214.033058 C351.21875,222.103306 358.039062,229.132231 365.869792,229.132231 L391.130208,229.132231 C399.213542,229.132231 405.78125,222.103306 405.78125,214.033058 C405.78125,207.785124 410.580729,203.099174 416.390625,203.099174 C422.453125,203.099174 427,207.785124 427,214.033058 C427,220.020661 422.453125,224.966942 416.390625,224.966942 C408.559896,224.966942 401.739583,231.735537 401.739583,240.066116 C401.739583,246.053719 397.192708,251 391.130208,251 L365.869792,251 C360.059896,251 355.260417,246.053719 355.260417,240.066116 C355.260417,231.735537 348.692708,224.966942 340.609375,224.966942 C334.799479,224.966942 330,220.020661 330,214.033058 L330,161.966942 C330,155.719008 334.799479,151.033058 340.609375,151.033058 C348.692708,151.033058 355.260417,144.264463 355.260417,135.933884 C355.260417,129.68595 360.059896,125 365.869792,125 L391.130208,125 C397.192708,125 401.739583,129.68595 401.739583,135.933884 C401.739583,144.004132 408.559896,151.033058 416.390625,151.033058 C422.453125,151.033058 427,155.719008 427,161.966942 C427,168.214876 422.453125,172.900826 416.390625,172.900826 C410.580729,172.900826 405.78125,167.954545 405.78125,161.966942 Z M443.609375,151.033058 C451.692708,151.033058 458.260417,144.264463 458.260417,135.933884 C458.260417,129.68595 463.059896,125 468.869792,125 C474.932292,125 479.479167,129.68595 479.479167,135.933884 C479.479167,142.181818 474.932292,146.867769 468.869792,146.867769 C461.039062,146.867769 454.21875,153.636364 454.21875,161.966942 L454.21875,214.033058 C454.21875,222.103306 461.039062,229.132231 468.869792,229.132231 L494.130208,229.132231 C502.213542,229.132231 508.78125,222.103306 508.78125,214.033058 L508.78125,135.933884 C508.78125,129.68595 513.580729,125 519.390625,125 C525.453125,125 530,129.68595 530,135.933884 L530,214.033058 C530,220.020661 525.453125,224.966942 519.390625,224.966942 C511.559896,224.966942 504.739583,231.735537 504.739583,240.066116 C504.739583,246.053719 500.192708,251 494.130208,251 L468.869792,251 C463.059896,251 458.260417,246.053719 458.260417,240.066116 C458.260417,231.735537 451.692708,224.966942 443.609375,224.966942 C437.799479,224.966942 433,220.020661 433,214.033058 L433,161.966942 C433,155.719008 437.799479,151.033058 443.609375,151.033058 Z M598.130208,198.933884 L572.869792,198.933884 C567.059896,198.933884 562.260417,194.247934 562.260417,188 C562.260417,179.669421 555.692708,172.900826 547.609375,172.900826 C541.799479,172.900826 537,168.214876 537,161.966942 C537,155.719008 541.799479,151.033058 547.609375,151.033058 C555.692708,151.033058 562.260417,144.004132 562.260417,135.933884 C562.260417,129.68595 567.059896,125 572.869792,125 L598.130208,125 C604.192708,125 608.739583,129.68595 608.739583,135.933884 C608.739583,144.264463 615.559896,151.033058 623.390625,151.033058 C629.453125,151.033058 634,155.719008 634,161.966942 C634,168.214876 629.453125,172.900826 623.390625,172.900826 C617.580729,172.900826 612.78125,168.214876 612.78125,161.966942 C612.78125,153.636364 606.213542,146.867769 598.130208,146.867769 L572.869792,146.867769 C565.039062,146.867769 558.21875,153.636364 558.21875,161.966942 C558.21875,170.297521 565.039062,177.066116 572.869792,177.066116 L598.130208,177.066116 C604.192708,177.066116 608.739583,181.752066 608.739583,188 C608.739583,196.070248 615.559896,203.099174 623.390625,203.099174 C629.453125,203.099174 634,207.785124 634,214.033058 C634,220.280992 629.453125,224.966942 623.390625,224.966942 C615.559896,224.966942 608.739583,231.735537 608.739583,240.066116 C608.739583,246.31405 604.192708,251 598.130208,251 L572.869792,251 C567.059896,251 562.260417,246.053719 562.260417,240.066116 C562.260417,231.735537 555.692708,224.966942 547.609375,224.966942 C541.799479,224.966942 537,220.020661 537,214.033058 C537,207.785124 541.799479,203.099174 547.609375,203.099174 C553.671875,203.099174 558.21875,207.785124 558.21875,214.033058 C558.21875,222.103306 565.039062,229.132231 572.869792,229.132231 L598.130208,229.132231 C606.213542,229.132231 612.78125,222.103306 612.78125,214.033058 C612.78125,205.702479 606.213542,198.933884 598.130208,198.933884 Z" fill="#383838"></path>
    </g>
</svg>